<?xml version="1.0" standalone="no"?>
<!DOCTYPE svg PUBLIC "-//W3C//DTD SVG 20010904//EN"
 "http://www.w3.org/TR/2001/REC-SVG-20010904/DTD/svg10.dtd">
<svg version="1.0" xmlns="http://www.w3.org/2000/svg"
 width="230.000000pt" height="233.000000pt" viewBox="0 0 230.000000 233.000000"
 preserveAspectRatio="xMidYMid meet">

<g transform="translate(0.000000,233.000000) scale(0.100000,-0.100000)"
fill="#000000" stroke="none">
<path d="M1360 2256 c0 -23 1 -23 148 -29 84 -3 170 -12 202 -21 206 -58 377
-234 425 -438 22 -94 22 -1127 0 -1213 -37 -143 -125 -268 -247 -352 -115 -77
-180 -95 -370 -101 l-158 -4 0 -29 0 -29 120 0 c146 0 250 19 345 64 174 82
287 209 353 395 l27 76 3 550 c3 626 1 648 -71 795 -59 121 -169 231 -287 288
-123 60 -180 72 -347 72 l-143 0 0 -24z"/>
<path d="M890 1630 c-43 -43 -31 -63 142 -237 l163 -163 -418 0 -417 0 0 -65
0 -65 417 0 417 0 -162 -163 c-138 -139 -162 -168 -162 -194 0 -37 27 -63 66
-63 24 0 64 36 256 228 172 172 228 233 228 252 0 18 -57 81 -232 257 -244
244 -257 254 -298 213z"/>
</g>
</svg>
