<svg width="49" height="41" viewBox="0 0 49 41" fill="none" xmlns="http://www.w3.org/2000/svg">
<path fill-rule="evenodd" clip-rule="evenodd" d="M37.3427 39.6365C37.9871 40.083 38.8177 40.1946 39.5582 39.9205C40.2987 39.6443 40.8431 39.0255 41.0072 38.2755C42.7464 30.2776 46.9653 10.0343 48.5484 2.75913C48.6685 2.2108 48.4684 1.64093 48.0281 1.27472C47.5878 0.908509 46.9774 0.802759 46.433 1.00055C38.0412 4.03988 12.1972 13.528 1.63389 17.3526C0.963424 17.5955 0.527121 18.2261 0.549136 18.9173C0.573153 19.6106 1.04948 20.2118 1.73596 20.4135C6.47325 21.8 12.6916 23.729 12.6916 23.729C12.6916 23.729 15.5976 32.3163 17.1126 36.6833C17.3028 37.2317 17.7411 37.6625 18.3195 37.8113C18.8959 37.9582 19.5123 37.8035 19.9426 37.406C22.3763 35.1578 26.1389 31.6818 26.1389 31.6818C26.1389 31.6818 33.2879 36.8106 37.3427 39.6365ZM15.3074 22.6441L18.6677 33.4893L19.4142 26.6214C19.4142 26.6214 32.3972 15.1632 39.7984 8.63218C40.0145 8.44026 40.0445 8.11909 39.8644 7.89388C39.6863 7.66868 39.3581 7.6158 39.1119 7.76855C30.5339 13.1285 15.3074 22.6441 15.3074 22.6441Z" fill="#CCCCCC"/>
</svg>
