<svg width="49" height="29" viewBox="0 0 49 29" fill="none" xmlns="http://www.w3.org/2000/svg">
<path d="M26.8423 28.2243C28.0611 28.2243 28.5595 27.4292 28.5455 26.4324C28.4834 22.6783 29.9745 20.6573 32.6663 23.2912C35.6444 26.2052 36.2608 28.2243 39.8773 28.2243H46.2818C47.8989 28.2243 48.5353 27.7151 48.5353 26.9161C48.5353 25.226 45.6914 22.2435 43.2817 20.0541C39.9073 16.9893 39.7492 16.9168 42.6553 13.2273C46.2598 8.64679 50.975 2.77767 46.8041 2.77767H38.8366C37.2915 2.77767 37.1795 3.62954 36.6291 4.89854C34.6377 9.49475 30.8531 15.4481 29.4161 14.5375C27.913 13.5877 28.6015 9.82571 28.7156 4.23467C28.7456 2.75809 28.7376 1.74563 26.432 1.22079C25.1731 0.936836 23.9483 0.819336 22.8115 0.819336C18.2623 0.819336 15.1241 2.68563 16.9074 3.01071C20.0516 3.5845 19.7494 10.2409 19.0168 13.1157C17.74 18.1212 12.9406 9.15204 10.9412 4.68509C10.4589 3.61192 10.3108 2.77767 8.58961 2.77767H2.07509C1.09041 2.77767 0.5 3.091 0.5 3.78817C0.5 4.96709 6.42411 16.9482 12.08 22.9211C17.5959 28.7471 23.0476 28.2243 26.8423 28.2243Z" fill="#CCCCCC"/>
</svg>
