<svg width="21" height="17" viewBox="0 0 21 17" fill="none" xmlns="http://www.w3.org/2000/svg">
<path fill-rule="evenodd" clip-rule="evenodd" d="M0.5 3.01291L0.500074 3.00824C0.510305 1.36472 1.84213 0.0346826 3.48634 0.0273438H17.5137C19.1579 0.0346826 20.4897 1.36471 20.5 3.00823L20.5 3.01084V13.037C20.4948 14.6894 19.1536 16.0273 17.5 16.0273H3.50001C1.84316 16.0273 0.500015 14.6842 0.500015 13.0273V3.04105L0.5 3.04V3.01291ZM3.50001 2.02731C3.11376 2.02731 2.77865 2.2463 2.61208 2.5669L10.5 7.82552L18.388 2.5669C18.2214 2.2463 17.8863 2.02731 17.5 2.02731H3.50001ZM18.5 13.0273V4.89589L11.0547 9.85942C10.7188 10.0834 10.2812 10.0834 9.94531 9.85942L2.50001 4.89589V13.0273C2.50001 13.5796 2.94773 14.0273 3.50001 14.0273H17.5C18.0523 14.0273 18.5 13.5796 18.5 13.0273Z" fill="#FFFBFB"/>
</svg>
