<svg width="19" height="21" viewBox="0 0 19 21" fill="none" xmlns="http://www.w3.org/2000/svg">
<path fill-rule="evenodd" clip-rule="evenodd" d="M15.8641 15.3911C17.1228 14.1324 17.9799 12.5288 18.3271 10.783C18.4419 10.2058 18.4993 9.62169 18.5 9.03888C18.5 9.03121 18.5 9.02353 18.5 9.01586C18.4985 7.84346 18.2679 6.67675 17.8149 5.58305C17.1337 3.93855 15.9801 2.53297 14.5001 1.54405C13.0266 0.559484 11.2953 0.0319569 9.52345 0.0273438H9.47656C7.70472 0.0319569 5.97345 0.559484 4.49992 1.54405C3.01989 2.53297 1.86634 3.93855 1.18513 5.58305C0.73061 6.68033 0.5 7.85109 0.5 9.02737C0.5 9.61401 0.557357 10.202 0.672903 10.783C1.02013 12.5288 1.87725 14.1324 3.13588 15.3911L7.37998 19.6342C7.52874 19.7828 7.69176 19.9145 7.8654 20.0273H11.1356C11.3092 19.9145 11.472 19.7831 11.6208 19.6345L15.8641 15.3911ZM9.5 2.02731C8.11555 2.02731 6.76219 2.43785 5.61105 3.207C4.45991 3.97615 3.56271 5.06938 3.03288 6.34844C2.50306 7.62751 2.36441 9.03495 2.63448 10.3928C2.90454 11.7506 3.57115 12.9979 4.55003 13.9768L5.88791 10.7471C5.63922 10.226 5.5 9.64252 5.5 9.02658C5.5 7.28643 6.61119 5.80581 8.16272 5.25559L9.5 2.02731ZM9.5 2.02731L8.16272 5.25559C8.58086 5.1073 9.03103 5.02658 9.5 5.02658C11.7091 5.02658 13.5 6.81744 13.5 9.02658C13.5 11.2357 11.7091 13.0266 9.5 13.0266C7.90685 13.0266 6.53118 12.0951 5.88791 10.7471L4.55003 13.9768L8.79375 18.2196C8.98124 18.4067 9.23559 18.5121 9.5005 18.5121C9.76554 18.5121 10.0197 18.4069 10.2073 18.2196L14.4499 13.9769C15.4288 12.9979 16.0955 11.7507 16.3655 10.3928C16.6356 9.03495 16.497 7.62751 15.9671 6.34844C15.4373 5.06938 14.5401 3.97615 13.389 3.207C12.2378 2.43785 10.8845 2.02731 9.5 2.02731ZM9.5 7.02658C8.39543 7.02658 7.5 7.92201 7.5 9.02658C7.5 10.1312 8.39543 11.0266 9.5 11.0266C10.6046 11.0266 11.5 10.1312 11.5 9.02658C11.5 7.92201 10.6046 7.02658 9.5 7.02658Z" fill="#FFFBFB"/>
</svg>
