<svg width="28" height="16" viewBox="0 0 28 16" fill="none" xmlns="http://www.w3.org/2000/svg">
<path d="M15.355 15.9929C16.0655 15.9929 16.356 15.5289 16.3478 14.9472C16.3117 12.7564 17.1808 11.577 18.7499 13.1141C20.4858 14.8147 20.8451 15.9929 22.9532 15.9929H26.6864C27.629 15.9929 28 15.6958 28 15.2295C28 14.2432 26.3422 12.5027 24.9376 11.225C22.9707 9.43645 22.8785 9.39416 24.5725 7.24105C26.6736 4.56794 29.4221 1.14284 26.9909 1.14284H22.3466C21.4459 1.14284 21.3806 1.63998 21.0598 2.38054C19.899 5.06279 17.6929 8.53703 16.8553 8.00561C15.9792 7.45133 16.3805 5.25593 16.447 1.99312C16.4645 1.13141 16.4598 0.540564 15.1159 0.234283C14.3821 0.0685705 13.6681 0 13.0055 0C10.3537 0 8.52448 1.08913 9.56394 1.27884C11.3967 1.61369 11.2205 5.49821 10.7936 7.17591C10.0492 10.097 7.2517 4.86279 6.08625 2.25597C5.80509 1.62969 5.71876 1.14284 4.71547 1.14284H0.918128C0.344152 1.14284 0 1.3257 0 1.73255C0 2.42054 3.45319 9.41245 6.75005 12.8981C9.96525 16.2981 13.1431 15.9929 15.355 15.9929Z" fill="#E66730"/>
</svg>
